<svg width="33" height="33" viewBox="0 0 33 33" fill="none" xmlns="http://www.w3.org/2000/svg">
<path d="M24.9606 32.0917L24.9605 32.0919L24.9716 32.0974C25.1016 32.1624 25.2132 32.2018 25.3326 32.2217C25.4404 32.2397 25.5453 32.2396 25.6463 32.2396L25.6582 32.2396C25.8137 32.2396 25.9588 32.2013 26.0583 32.1728C26.0801 32.1666 26.0984 32.1612 26.1147 32.1564C26.1412 32.1486 26.1625 32.1424 26.1846 32.1367C26.2047 32.1314 26.2147 32.1296 26.2174 32.1291H26.3015L26.3771 32.0787C26.7961 31.7994 27.0852 31.2408 26.9467 30.6635L25.3163 20.9895L31.9512 14.137L31.9701 14.1174L31.9853 14.0948C32.2389 13.7143 32.3842 13.2966 32.2477 12.7506C32.1 12.1598 31.6462 11.884 31.1454 11.7588L31.1319 11.7554L31.118 11.7533L21.8839 10.341L17.7529 1.53558L17.753 1.53554L17.7496 1.52883C17.6213 1.27226 17.4518 1.06179 17.2334 0.916142C17.013 0.769239 16.7603 0.7 16.4868 0.7C16.2134 0.7 15.9607 0.769237 15.7403 0.916134C15.5218 1.06178 15.3523 1.27224 15.224 1.52883L15.2239 1.52879L15.2207 1.53558L11.0898 10.341L1.87622 11.7502C1.48644 11.7597 1.16526 11.9942 0.965319 12.2774C0.76618 12.5595 0.654679 12.9333 0.717417 13.295C0.736409 14.0522 1.48237 14.5776 2.28012 14.4455L12.2235 12.8988L12.2369 12.8967L12.2501 12.8934C12.7276 12.774 13.1763 12.5153 13.3398 12.0522L16.4868 5.3521L19.6407 12.0669L19.6503 12.0871L19.6627 12.1058C19.926 12.5007 20.3163 12.7586 20.7014 12.887L20.7254 12.8949L20.7503 12.8988L28.0251 14.0259L22.792 19.4642C22.4202 19.837 22.238 20.2727 22.3822 20.7389L23.6063 28.2872L17.3047 24.8314C16.8776 24.5534 16.317 24.5534 15.89 24.8315L9.58842 28.2872L10.816 20.7168L10.8199 20.6929V20.6687C10.8199 20.1814 10.6981 19.7607 10.4021 19.4637L6.53606 15.4872L6.53609 15.4872L6.5331 15.4842C5.97395 14.925 5.12101 14.925 4.56186 15.4842C4.00271 16.0433 4.00271 16.8963 4.56186 17.4554L7.98838 20.882L6.35844 30.553C6.22081 31.1271 6.50577 31.6825 6.92094 31.9634C7.44301 32.3517 8.01599 32.3789 8.46522 32.086L16.7078 27.5309L24.9606 32.0917Z" fill="#B9A947" stroke="#B9A947" stroke-width="0.6"/>
</svg>
