<svg width="89" height="89" viewBox="0 0 89 89" fill="none" xmlns="http://www.w3.org/2000/svg">
<path d="M88.6396 86.2028L79.2644 74.0063C78.9724 73.6253 78.5358 73.3829 78.0578 73.3354C71.6974 72.7046 68.3017 71.354 65.572 70.2683C63.1574 69.3081 60.6613 68.3154 57.4401 68.3154C52.5335 68.3154 48.7826 70.9317 46.2383 73.8969V73.8324C47.6554 70.565 51.4328 65.4092 57.3009 65.4092C59.8255 65.4092 61.7912 66.1914 64.0693 67.0972C65.9699 67.853 68.3356 68.7941 71.7938 69.5207C72.7336 69.7182 73.655 69.1166 73.8526 68.1769C74.0495 67.2378 73.4479 66.3157 72.5089 66.1188C69.3426 65.4533 67.224 64.6107 65.3533 63.8665C62.9632 62.9158 60.4916 61.9326 57.3009 61.9326C51.1917 61.9326 46.8922 66.0264 44.5 69.7549C42.1078 66.0264 37.8083 61.9326 31.6985 61.9326C28.5084 61.9326 26.0361 62.9158 23.6453 63.8671C20.9475 64.94 17.5898 66.2756 11.3007 66.899C10.3453 66.994 9.64799 67.8448 9.74238 68.8002C9.83744 69.7556 10.6889 70.4529 11.6443 70.3586C18.4196 69.6863 22.1827 68.1898 24.9307 67.0972C27.2074 66.1914 29.1739 65.4092 31.6985 65.4092C37.5672 65.4092 41.3453 70.5657 42.7617 73.8331V73.8969C40.2167 70.9317 36.4665 68.3147 31.5593 68.3147C28.3387 68.3147 25.8419 69.3081 23.426 70.2689C20.6977 71.354 17.3026 72.7046 10.9415 73.3354C10.4642 73.3829 10.0276 73.6253 9.73491 74.0063L0.360375 86.2028C-0.0436415 86.7277 -0.113581 87.4366 0.179077 88.0307C0.471734 88.6242 1.07606 89.0003 1.7381 89.0003H87.2619C87.9239 89.0003 88.5283 88.6242 88.8209 88.0307C89.1136 87.4366 89.0436 86.7277 88.6396 86.2028ZM57.4401 71.7913C59.9952 71.7913 61.9841 72.5823 64.2886 73.499C66.9613 74.5624 70.5852 76.0032 76.9625 76.7155L83.7147 85.5C72.0974 85.2494 66.5837 83.0562 62.862 81.576C60.7021 80.717 59.2754 80.1493 57.4401 80.1493C54.2276 80.1493 52.0256 82.5605 51.113 84.6315C51.1048 84.6478 51.0967 84.6641 51.0885 84.6811L50.6926 85.5238H46.2383V80.3218C47.671 77.015 51.4959 71.7913 57.4401 71.7913ZM12.0375 76.7155C18.4148 76.0032 22.0381 74.5617 24.7127 73.4983C27.0153 72.5823 29.0048 71.7913 31.5593 71.7913C37.5034 71.7913 41.329 77.015 42.7617 80.3218V85.5238H38.3067L37.9115 84.6811C37.9033 84.6641 37.8952 84.6478 37.887 84.6315C36.9738 82.5605 34.7724 80.1493 31.5599 80.1493C29.7245 80.1493 28.2979 80.717 26.138 81.576C22.4163 83.0562 16.902 85.2494 5.2853 85.5L12.0375 76.7155ZM27.4234 84.806C29.3368 84.0449 30.3907 83.6259 31.5593 83.6259C33.0592 83.6259 34.001 84.806 34.4356 85.5238H25.5839C26.2453 85.2746 26.8537 85.0328 27.4234 84.806ZM54.5644 85.5238C54.999 84.806 55.9408 83.6259 57.4401 83.6259C58.6093 83.6259 59.6632 84.0449 61.5773 84.8067C62.1463 85.0328 62.7554 85.2746 63.4161 85.5238H54.5644Z" fill="#B9A947"/>
<path d="M77.2913 70.3525L77.3545 70.3587C77.4122 70.3641 77.4699 70.3675 77.5263 70.3675C78.4104 70.3675 79.1661 69.6966 79.2544 68.7989C79.3481 67.8436 78.6501 66.9928 77.6947 66.899L77.6329 66.8929C76.6775 66.7979 75.8267 67.4966 75.7323 68.452C75.6379 69.4073 76.336 70.2582 77.2913 70.3525Z" fill="#B9A947"/>
<path d="M38.6302 42.7685C38.1787 42.8072 37.757 43.0211 37.4596 43.3681C37.1289 43.7531 36.9836 44.2631 37.0603 44.7642C37.7808 49.4569 40.2782 52.6632 43.9245 53.7626C43.841 54.4199 43.7636 55.0778 43.6944 55.7378L42.7689 64.5644C42.669 65.5191 43.3616 66.3747 44.3163 66.4745C44.3781 66.4813 44.4392 66.484 44.4997 66.484C45.3783 66.484 46.1327 65.8206 46.2264 64.927L47.1519 56.1004C47.2191 55.4588 47.2945 54.8198 47.3746 54.1822C55.4604 54.0824 60.3969 48.9266 62.8679 38.0249C63.1429 36.8122 63.4763 35.3998 63.8599 33.8265C63.9814 33.3281 63.8769 32.8019 63.5734 32.3877C63.4606 32.2342 63.3248 32.1018 63.1727 31.9945L63.8565 31.6034C64.2673 31.3692 64.5647 30.9767 64.6795 30.5177C67.7167 18.4311 72.163 2.36344 72.2078 2.20251C72.3578 1.66201 72.2377 1.0828 71.8852 0.646874C71.5335 0.210264 70.9903 -0.0307884 70.4328 0.00316254C69.8441 0.0364346 55.8794 1.04546 44.4005 19.7206C44.2579 19.9521 44.1194 20.1816 43.9823 20.4118C43.7711 20.7635 43.6916 21.1791 43.7568 21.5838L44.6273 26.9433H41.6756C40.979 26.9433 40.3502 27.3589 40.0765 27.9992C38.2153 32.3605 37.1459 36.4543 36.8974 40.1686C36.8641 40.6622 37.0434 41.147 37.3897 41.5008L38.6302 42.7685ZM61.4888 28.9525L56.8463 31.6054C56.1809 31.9857 55.8427 32.7571 56.0145 33.504C56.1863 34.2509 56.8273 34.7975 57.5919 34.8491L59.999 35.0107C59.8075 35.8174 59.633 36.5677 59.4768 37.2563C56.9678 48.327 52.3342 50.5128 47.8839 50.6975C50.4343 35.3183 56.8884 21.0365 66.7634 8.93432C65.2465 14.5294 63.1761 22.2716 61.4888 28.9525ZM42.8374 30.4206H46.6705C47.1798 30.4206 47.6639 30.1965 47.9946 29.8081C48.3246 29.4197 48.4679 28.9063 48.3864 28.4032L47.2911 21.6571C47.3142 21.6184 47.338 21.5804 47.3617 21.5417C52.8421 12.6255 58.884 8.18807 62.9874 6.03558C63.959 5.52563 64.8703 5.11754 65.7021 4.7889C59.7206 11.7339 54.8126 19.4972 51.1065 27.8905C47.943 35.0542 45.7077 42.556 44.4345 50.2575C42.5414 49.482 41.5262 47.8225 40.9817 46.2383H42.7593C43.4594 46.2383 44.0909 45.8187 44.3618 45.1736C44.6328 44.5292 44.4908 43.7844 44.0013 43.2839L40.4296 39.6362C40.7107 36.8115 41.5188 33.7192 42.8374 30.4206Z" fill="#B9A947"/>
</svg>
