<svg width="89" height="89" viewBox="0 0 89 89" fill="none" xmlns="http://www.w3.org/2000/svg">
<path d="M79.6853 67.8455C80.9971 66.3057 81.7916 64.3095 81.7916 62.1293V61.1864C81.7916 56.3267 77.8512 52.373 73.0078 52.373C68.1644 52.373 64.2241 56.3267 64.2241 61.1864V62.1293C64.2241 64.3095 65.0185 66.3057 66.3304 67.8455C63.1193 68.6746 60.4093 70.7655 58.7539 73.5568C57.0985 70.7655 54.3885 68.6746 51.1774 67.8455C52.4893 66.3057 53.2838 64.3095 53.2838 62.1293V61.1864C53.2838 56.3267 49.3434 52.373 44.5 52.373C39.6566 52.373 35.7162 56.3267 35.7162 61.1864V62.1293C35.7162 64.3095 36.5107 66.3057 37.8226 67.8455C34.6115 68.6746 31.9015 70.7655 30.2461 73.5568C28.5907 70.7655 25.8807 68.6746 22.6696 67.8455C23.9815 66.3057 24.7759 64.3095 24.7759 62.1293V61.1864C24.7759 56.3267 20.8356 52.373 15.9922 52.373C11.1488 52.373 7.20844 56.3267 7.20844 61.1864V62.1293C7.20844 64.3095 8.00288 66.3057 9.31474 67.8455C3.96478 69.2272 0 74.108 0 79.9011V87.2558C0 88.2192 0.778152 89 1.73828 89H87.2617C88.2218 89 89 88.2192 89 87.2558V79.9011C89 74.108 85.0352 69.2272 79.6853 67.8455ZM67.7006 61.1864C67.7006 58.25 70.0813 55.8613 73.0078 55.8613C75.9344 55.8613 78.315 58.25 78.315 61.1864V62.1293C78.315 65.0657 75.9344 67.4544 73.0078 67.4544C70.0813 67.4544 67.7006 65.0657 67.7006 62.1293V61.1864ZM39.1928 61.1864C39.1928 58.25 41.5734 55.8613 44.5 55.8613C47.4266 55.8613 49.8072 58.25 49.8072 61.1864V62.1293C49.8072 65.0657 47.4266 67.4544 44.5 67.4544C41.5734 67.4544 39.1928 65.0657 39.1928 62.1293V61.1864ZM10.685 61.1864C10.685 58.25 13.0656 55.8613 15.9922 55.8613C18.9187 55.8613 21.2994 58.25 21.2994 61.1864V62.1293C21.2994 65.0657 18.9187 67.4544 15.9922 67.4544C13.0656 67.4544 10.685 65.0657 10.685 62.1293V61.1864ZM3.47656 79.9011C3.47656 74.9617 7.4814 70.9427 12.4049 70.9427H19.5794C24.5023 70.9427 28.5078 74.9617 28.5078 79.9011V85.5117H3.47656V79.9011ZM31.9844 79.9011C31.9844 74.9617 35.9892 70.9427 40.9128 70.9427H48.0872C53.0101 70.9427 57.0156 74.9617 57.0156 79.9011V85.5117H31.9844V79.9011ZM85.5234 85.5117H60.4922V79.9011C60.4922 74.9617 64.497 70.9427 69.4206 70.9427H76.5951C81.5179 70.9427 85.5234 74.9617 85.5234 79.9011V85.5117Z" fill="#B9A947"/>
<path d="M13.5208 34.8304L13.5053 44.4717C13.5039 45.1432 13.89 45.7557 14.4955 46.0433C14.7326 46.1559 14.9866 46.2115 15.2385 46.2115C15.6321 46.2115 16.0215 46.0772 16.3372 45.8181L26.132 37.7898H36.9679L43.1668 45.5583C43.5055 45.983 44.025 46.2271 44.5655 46.2102C45.1081 46.1966 45.6127 45.9294 45.929 45.4885L51.4573 37.7892H62.9374L72.6875 45.8161C73.2057 46.2427 73.923 46.3316 74.5292 46.0447C75.136 45.7578 75.5228 45.1459 75.5228 44.4744V34.8026C80.9042 31.3406 84.2075 25.337 84.2075 18.8946C84.2075 8.47597 75.7436 0 65.3398 0H23.6598C13.256 0 4.79211 8.47597 4.79211 18.8946C4.79211 25.3587 8.1117 31.3732 13.5208 34.8304ZM23.6598 3.47287H65.3398C73.8315 3.47287 80.7396 10.3915 80.7396 18.8946C80.7396 24.4335 77.7478 29.575 72.9327 32.3146C72.3902 32.6226 72.0549 33.1991 72.0549 33.8238V40.7994L64.6591 34.7117C64.3489 34.456 63.9601 34.3163 63.5585 34.3163H50.5687C50.0106 34.3163 49.487 34.5856 49.1612 35.0393L44.449 41.6012L39.157 34.9688C38.8279 34.5564 38.3293 34.3163 37.8024 34.3163H25.5129C25.1126 34.3163 24.7245 34.4553 24.4143 34.709L16.9793 40.8042L16.9901 33.8523C16.9915 33.2242 16.6542 32.645 16.1082 32.337C11.2674 29.6035 8.26004 24.4525 8.26004 18.8946C8.26004 10.3915 15.1681 3.47287 23.6598 3.47287Z" fill="#B9A947"/>
<path d="M65.3484 10.2693H65.4048H65.4114C66.336 10.2693 67.0881 9.50777 67.0914 8.56442C67.0953 7.61906 66.3459 6.8502 65.4179 6.84619H65.3484C64.4204 6.84619 63.6683 7.61237 63.6683 8.55773C63.6683 9.50309 64.4204 10.2693 65.3484 10.2693Z" fill="#B9A947"/>
<path d="M71.099 12.626C72.9131 14.2387 73.9536 16.5634 73.9536 19.0041C73.9536 21.3153 73.0515 23.4754 71.4139 25.088C70.7375 25.7541 70.7196 26.8517 71.3733 27.5408C71.7081 27.8925 72.1528 28.0693 72.5989 28.0693C73.0256 28.0693 73.4523 27.9074 73.7832 27.5815C76.0912 25.3096 77.362 22.2639 77.362 19.0041C77.362 15.5613 75.8961 12.2839 73.3411 10.0126C72.6321 9.38249 71.5557 9.45702 70.9366 10.1786C70.3175 10.9003 70.39 11.9959 71.099 12.626Z" fill="#B9A947"/>
<path d="M39.3119 24.2673C41.4724 26.2585 43.6058 27.7092 43.6953 27.77C43.9897 27.97 44.3309 28.0693 44.6721 28.0693C45.0127 28.0693 45.3539 27.9693 45.6483 27.77C45.7378 27.7092 47.8712 26.2585 50.0317 24.2673C53.2206 21.3294 54.7699 18.8186 54.7699 16.5929C54.7699 12.7287 51.8184 9.58472 48.19 9.58472C46.9371 9.58472 45.7154 9.96918 44.6721 10.6712C43.6275 9.96918 42.4065 9.58472 41.1536 9.58472C37.5252 9.58472 34.5737 12.728 34.5737 16.5929C34.5737 18.8186 36.1231 21.3287 39.3119 24.2673ZM41.1536 13.0442C41.9859 13.0442 42.7687 13.4179 43.3582 14.0969C43.6886 14.4767 44.1675 14.6949 44.6721 14.6949C45.1762 14.6949 45.6551 14.4767 45.9854 14.0969C46.5749 13.4179 47.3577 13.0442 48.19 13.0442C49.9035 13.0442 51.2968 14.6361 51.2968 16.5929C51.2968 18.528 47.6372 22.0179 44.6708 24.2159C41.7044 22.0206 38.0461 18.5334 38.0461 16.5929C38.0468 14.6361 39.4401 13.0442 41.1536 13.0442Z" fill="#B9A947"/>
</svg>
