<svg width="92" height="90" viewBox="0 0 92 90" fill="none" xmlns="http://www.w3.org/2000/svg">
<path d="M15.4109 21.5463C11.6762 21.5463 8.6377 18.5061 8.6377 14.7696C8.6377 11.0356 11.6762 7.9978 15.4109 7.9978C19.1483 7.9978 22.1888 11.0356 22.1888 14.7696C22.1888 18.5063 19.1483 21.5463 15.4109 21.5463ZM15.4109 11.5277C13.6224 11.5277 12.1676 12.982 12.1676 14.7696C12.1676 16.5599 13.6224 18.0164 15.4109 18.0164C17.2018 18.0164 18.6589 16.5599 18.6589 14.7696C18.6589 12.982 17.2019 11.5277 15.4109 11.5277Z" fill="#B9A947"/>
<path d="M89.2372 55.4799H84.0818C85.1189 52.0898 85.6439 48.5705 85.6439 44.9856C85.6439 25.1973 69.5409 9.09832 49.7475 9.09832C42.7904 9.09832 35.98 11.1358 30.1882 14.8946C30.188 14.8496 30.1894 14.8055 30.1889 14.7601C30.1841 6.62015 23.5565 0 15.4109 0C7.26799 0 0.642545 6.62015 0.63778 14.7601C0.566652 21.7952 4.08349 26.4109 7.807 31.2977C8.17923 31.7862 11.865 36.182 11.865 36.182C12.7879 37.2482 13.7512 37.7041 14.5593 37.8758C14.0897 40.2124 13.8511 42.5937 13.8511 44.9854C13.8511 64.7736 29.9541 80.8726 49.7475 80.8726C52.0709 80.8726 54.3812 80.6497 56.6428 80.209V88.071C56.6428 89.0458 57.4332 89.8359 58.4078 89.8359H65.8977C66.8723 89.8359 67.6626 89.0458 67.6626 88.071C67.6626 87.0962 66.8723 86.306 65.8977 86.306H60.1727V59.0098H66.4891V69.9845C66.4891 70.6241 66.8352 71.2136 67.3936 71.5255C67.9517 71.8372 68.6353 71.8227 69.1799 71.4872L73.8225 68.6265L78.4652 71.4872C78.7486 71.6617 79.0697 71.7494 79.3911 71.7494C79.6872 71.7494 79.9837 71.675 80.2516 71.5255C80.8099 71.2136 81.156 70.6241 81.156 69.9845V59.0098C81.156 59.0098 81.6033 59.0104 81.6071 59.0104C81.6117 59.0104 87.4722 59.0098 87.4722 59.0098V86.306H81.7474C80.7728 86.306 79.9825 87.0962 79.9825 88.071C79.9825 89.0458 80.7728 89.8359 81.7474 89.8359H89.2372C90.2118 89.8359 91.0021 89.0458 91.0021 88.071V57.2449C91.0021 56.2701 90.212 55.4799 89.2372 55.4799ZM29.6163 19.6476C32.6014 17.2764 35.9756 15.4648 39.5614 14.2765C38.1497 15.8607 36.8438 17.79 35.675 20.0447C35.1058 21.1429 34.5793 22.3007 34.0958 23.5084C32.2863 23.0047 30.5643 22.4112 28.9527 21.7331C29.2083 21.059 29.434 20.367 29.6163 19.6476ZM32.9118 26.8392C31.3627 31.7807 30.4688 37.3747 30.3189 43.2206H17.433C17.5538 41.0162 17.8963 38.8307 18.4587 36.6972C18.6327 36.5385 18.8016 36.3671 18.9629 36.1809C18.9629 36.1809 22.6478 31.7864 23.0198 31.2979C24.622 29.1953 26.184 27.1417 27.4401 24.9251C29.1581 25.6551 30.99 26.2947 32.9118 26.8392ZM15.4109 34.4373C15.1645 34.4373 14.8449 34.2312 14.5348 33.8729C14.5348 33.8729 10.9799 29.6376 10.6149 29.1584C7.1222 24.5746 4.10608 20.6162 4.1675 14.7883C4.16768 14.7822 4.16768 14.776 4.16768 14.7698C4.16768 8.57218 9.21137 3.53008 15.4109 3.53008C21.6133 3.53008 26.659 8.57218 26.659 14.7698C26.659 14.776 26.659 14.7822 26.6591 14.7885C26.7207 20.6164 23.7044 24.5748 20.212 29.1586C19.847 29.6379 16.2929 33.872 16.2929 33.872C15.9819 34.2312 15.6601 34.4373 15.4109 34.4373ZM17.43 46.7505H30.3189C30.4686 52.592 31.3613 58.1819 32.9083 63.1206C30.1373 63.9072 27.5524 64.8935 25.2161 66.0681C20.6956 60.8182 17.8277 54.1075 17.43 46.7505ZM27.8005 68.7448C29.7256 67.8584 31.8421 67.0963 34.0988 66.4701C34.5816 67.6752 35.1071 68.8306 35.6752 69.9266C36.8457 72.1847 38.1537 74.1164 39.5682 75.702C35.1478 74.234 31.1479 71.8373 27.8005 68.7448ZM47.9826 77.1348C44.5933 76.341 41.3873 73.2754 38.8089 68.302C38.3682 67.4516 37.9553 66.5612 37.5697 65.6364C40.8703 64.9607 44.3875 64.5566 47.9824 64.4567V77.1348H47.9826ZM47.9826 60.9246C43.9244 61.0275 40.0029 61.4852 36.3379 62.2694C34.8575 57.6247 34.0001 52.321 33.8504 46.7505H47.9826V60.9246ZM47.9826 43.2206H33.8504C34.0003 37.6455 34.8589 32.3378 36.3415 27.6903C40.0221 28.479 43.9523 28.9411 47.9824 29.0458V43.2206H47.9826ZM47.9826 25.5143C44.3752 25.416 40.8627 25.0176 37.5663 24.3431C37.9529 23.4152 38.3669 22.522 38.8091 21.6692C41.3873 16.6955 44.5933 13.6302 47.9827 12.8363V25.5143H47.9826ZM51.5125 12.8359C54.9033 13.6296 58.1098 16.6952 60.6875 21.669C61.1282 22.5192 61.5409 23.4098 61.9264 24.3344C58.6254 25.0102 55.1077 25.4144 51.5125 25.5143V12.8359ZM56.6428 76.6029C54.9597 76.9677 53.2437 77.1984 51.5125 77.2917V64.4577C53.2416 64.5048 54.9573 64.6215 56.6428 64.8061V76.6029ZM64.7912 55.4799H58.4078C57.4332 55.4799 56.6428 56.2701 56.6428 57.2449V61.2556C54.9541 61.081 53.2387 60.9718 51.5125 60.9271V46.7507H65.6419C65.5613 49.74 65.2782 52.6649 64.7912 55.4799ZM51.5125 43.2206V29.0463C55.571 28.9434 59.4928 28.4856 63.1579 27.7014C64.6378 32.3459 65.4947 37.6494 65.6444 43.2206H51.5125ZM65.3975 23.5007C64.9148 22.2957 64.3895 21.1406 63.8216 20.0447C62.6516 17.787 61.3437 15.8554 59.9297 14.27C64.3487 15.7379 68.3478 18.1342 71.6945 21.2262C69.7698 22.1125 67.6536 22.8746 65.3975 23.5007ZM66.5876 26.8502C69.3582 26.0635 71.943 25.0773 74.2789 23.9029C78.7996 29.1526 81.6673 35.8634 82.065 43.2204H69.1759C69.0262 37.3786 68.1339 31.7887 66.5876 26.8502ZM77.6261 66.8238L74.7484 65.0506C74.1808 64.7009 73.4645 64.7008 72.8966 65.0506L70.019 66.8236V59.0097H77.6261V66.8238ZM80.3697 55.4799H68.3658C68.8254 52.6532 69.0954 49.7308 69.1727 46.7505H82.065C81.9042 49.7366 81.3366 52.6617 80.3697 55.4799Z" fill="#B9A947"/>
<path d="M73.8223 86.3062C72.8477 86.3062 72.0574 87.0963 72.0574 88.0711C72.0574 89.0459 72.8477 89.8361 73.8223 89.8361H73.8324C74.807 89.8361 75.5924 89.0459 75.5924 88.0711C75.5924 87.0963 74.7971 86.3062 73.8223 86.3062Z" fill="#B9A947"/>
</svg>
