<svg width="96" height="87" viewBox="0 0 96 87" fill="none" xmlns="http://www.w3.org/2000/svg">
<path d="M95.0489 61.5376L90.5301 57.0556C89.8038 56.3353 88.6315 56.3403 87.9114 57.0663C87.191 57.7924 87.196 58.9649 87.9221 59.685L92.4408 64.167C92.8018 64.5253 93.2733 64.7041 93.7447 64.7041C94.221 64.7041 94.6974 64.5214 95.0593 64.1563C95.7798 63.4302 95.775 62.2578 95.0489 61.5376Z" fill="#B9A947"/>
<path d="M85.9293 52.4698C85.2061 51.7467 84.0341 51.7467 83.3106 52.4698L83.3074 52.473C82.5843 53.1961 82.586 54.3671 83.3091 55.0902C83.6701 55.4514 84.1439 55.6319 84.6174 55.6319C85.0921 55.6319 85.5671 55.4506 85.9291 55.0887C86.6522 54.3656 86.6522 53.1931 85.9293 52.4698Z" fill="#B9A947"/>
<path d="M70.1428 61.0077L88.1057 43.045C90.8262 40.3243 90.8262 35.8974 88.1055 33.1768C87.1462 32.2174 85.9745 31.598 84.7404 31.3153C85.1636 30.4055 85.3876 29.4071 85.3876 28.3739C85.3876 26.51 84.6617 24.7577 83.344 23.44C82.3104 22.4062 81.0091 21.7386 79.5967 21.4981C80.3919 19.0755 79.8298 16.301 77.9069 14.3782C76.8496 13.3211 75.5346 12.6768 74.1622 12.4414C74.3921 11.7436 74.5134 11.0068 74.5134 10.2507C74.5134 8.3868 73.7875 6.63454 72.4697 5.31678C71.1518 3.99901 69.3995 3.27311 67.5358 3.27311C66.3523 3.27311 65.2143 3.56673 64.2033 4.11805L64.0246 3.92607C61.7027 1.43088 58.4161 0 55.008 0H40.4678C39.4453 0 38.6161 0.829202 38.6161 1.85168V4.27986C38.6161 5.25161 38.7805 6.19763 39.0949 7.08718C38.2574 6.73932 37.3511 6.5566 36.417 6.5566C34.5531 6.5566 32.8008 7.2825 31.4829 8.60026C29.559 10.5241 28.9975 13.3007 29.7945 15.7241C28.421 15.959 27.1041 16.6037 26.0459 17.6617C24.7282 18.9796 24.0023 20.7319 24.0023 22.5956C24.0023 23.3502 24.1232 24.0859 24.3522 24.7822C22.9415 25.0234 21.6415 25.6906 20.6088 26.7235C18.4841 28.8482 18.0188 32.014 19.2131 34.5945C17.9485 34.8835 16.787 35.5203 15.8469 36.4602C13.1264 39.1807 13.1264 43.6076 15.8469 46.3283L19.541 50.0222L1.35484 68.208C0.63172 68.9311 0.63172 70.1035 1.35484 70.8268C1.7164 71.1882 2.19034 71.3693 2.66409 71.3693C3.13784 71.3693 3.61177 71.1884 3.97333 70.8268L22.335 52.4652C23.3745 53.0583 24.5542 53.3757 25.7836 53.3757C27.6473 53.3757 29.3996 52.6498 30.7175 51.3318C32.1493 49.9002 32.8265 47.9957 32.7512 46.1163C32.8451 46.1202 32.9389 46.123 33.0328 46.123C34.8193 46.1228 36.6067 45.4426 37.9667 44.0826C39.2845 42.7647 40.0104 41.0124 40.0104 39.1487C40.0104 39.0545 40.0072 38.9608 40.0035 38.8671C40.0963 38.8708 40.189 38.8738 40.282 38.8738C42.0687 38.8738 43.8557 38.1936 45.2159 36.8335C46.5336 35.5155 47.2595 33.7633 47.2595 31.8995C47.2595 31.8053 47.2564 31.7116 47.2527 31.618C47.3454 31.6217 47.4382 31.6246 47.5311 31.6246C49.318 31.6246 51.1049 30.9445 52.465 29.5843C55.0213 27.028 55.1752 22.9657 52.9279 20.2274L65.2195 7.93582C65.838 7.31712 66.66 6.97666 67.5347 6.97666C68.4094 6.97666 69.2316 7.31712 69.8501 7.93582C70.4687 8.55435 70.8091 9.37633 70.8091 10.2511C70.8091 11.1256 70.4687 11.948 69.85 12.5663L68.0377 14.3786L61.4622 20.954C60.7391 21.6772 60.7391 22.8496 61.4622 23.5729C61.8238 23.9343 62.2977 24.1153 62.7715 24.1153C63.2452 24.1153 63.7192 23.9345 64.0807 23.5729L70.6562 16.9974C71.9327 15.7208 74.01 15.7206 75.2869 16.9972C76.5635 18.2741 76.5635 20.3513 75.2869 21.6281L73.4744 23.4405L68.7114 28.2036C67.9883 28.9267 67.9883 30.0991 68.7114 30.8224C69.073 31.1838 69.5469 31.3649 70.0206 31.3649C70.4944 31.3649 70.9683 31.184 71.3299 30.8224L76.0929 26.0594C76.7115 25.4407 77.5336 25.1002 78.4082 25.1002C79.2829 25.1002 80.1051 25.4407 80.7236 26.0594C81.3421 26.6779 81.6826 27.4999 81.6826 28.3746C81.6826 29.2492 81.3421 30.0716 80.7234 30.6899L78.2358 33.1775L75.9604 35.4529C75.2373 36.1761 75.2373 37.3485 75.9604 38.0718C76.3219 38.4332 76.7959 38.6142 77.2696 38.6142C77.7434 38.6142 78.2173 38.4334 78.5789 38.0718L80.856 35.7947C82.1328 34.5201 84.2089 34.5203 85.485 35.7964C86.7618 37.073 86.7618 39.1504 85.485 40.4272L67.5221 58.3899C63.0116 62.9006 57.0169 65.5119 50.6422 65.7433C50.1737 65.7604 49.7286 65.9546 49.3976 66.2871L32.804 82.9422C32.0821 83.6666 32.0842 84.839 32.8088 85.5609C33.17 85.9208 33.6428 86.1009 34.1156 86.1009C34.5905 86.1009 35.0657 85.9193 35.4273 85.556L47.6324 73.3059C50.7326 75.2948 54.3786 76.2404 58.0858 75.9953L67.6382 85.5479C67.9998 85.9093 68.4737 86.0903 68.9474 86.0903C69.4214 86.0903 69.8951 85.9095 70.2567 85.5479C70.9798 84.8248 70.9798 83.6523 70.2567 82.929L60.1004 72.7716C59.7159 72.3873 59.1816 72.1909 58.6397 72.2353L58.0527 72.2834C55.3429 72.5056 52.6644 71.9121 50.3259 70.6015L51.5159 69.4073C58.5538 68.9731 65.143 66.0077 70.1428 61.0077ZM28.099 48.7133C27.4805 49.332 26.6582 49.6725 25.7838 49.6725C24.9091 49.6725 24.0869 49.332 23.4685 48.7133L18.4652 43.7102C17.1885 42.4335 17.1885 40.3561 18.4652 39.0793C19.0837 38.4606 19.9061 38.1201 20.7806 38.1201C21.6552 38.1201 22.4775 38.4606 23.0959 39.0793L28.0992 44.0825C29.3757 45.3591 29.3757 47.4365 28.099 48.7133ZM35.3486 41.4638C34.0717 42.7404 31.994 42.7404 30.7177 41.4638L25.7144 36.4604L23.2266 33.9726C21.9499 32.696 21.9499 30.6186 23.2266 29.342C23.8451 28.7232 24.6675 28.3828 25.5418 28.3828C26.4166 28.3828 27.2387 28.7232 27.8571 29.342L35.348 36.8329C35.348 36.8329 35.348 36.8329 35.3482 36.8329C35.9669 37.4516 36.3074 38.2738 36.3074 39.1483C36.3074 40.0229 35.9669 40.8453 35.3486 41.4638ZM42.5978 34.2144C41.3209 35.4909 39.2434 35.4911 37.9669 34.2144L28.6635 24.911C28.045 24.2925 27.7045 23.4705 27.7045 22.5958C27.7045 21.7212 28.045 20.8989 28.6637 20.2805C29.302 19.6422 30.1407 19.323 30.9789 19.323C31.8168 19.323 32.6546 19.6418 33.2927 20.2791L37.5329 24.5193L42.5974 29.5837H42.5976C43.2159 30.2023 43.5564 31.0242 43.5564 31.899C43.5567 32.7737 43.2163 33.5961 42.5978 34.2144ZM49.8471 26.9651C48.5704 28.2417 46.4931 28.2417 45.2164 26.9651L35.9131 17.6617C35.9121 17.6608 35.911 17.6598 35.9099 17.6587L34.1006 15.8494C32.824 14.5726 32.824 12.4954 34.1006 11.2186C34.7389 10.58 35.5776 10.2609 36.416 10.2609C37.2545 10.2609 38.0932 10.58 38.7313 11.2186L49.8467 22.334C50.4655 22.9525 50.8059 23.7747 50.8059 24.6493C50.8061 25.5242 50.4658 26.3467 49.8471 26.9651ZM50.334 17.5841L45.2481 12.4982C45.8248 12.6213 46.4178 12.6867 47.0213 12.6865C47.0348 12.6865 47.0485 12.6865 47.0622 12.6865L52.1437 12.6626C53.1661 12.6578 53.9915 11.8249 53.9866 10.8022C53.9818 9.7825 53.1537 8.95923 52.1351 8.95923C52.1322 8.95923 52.1292 8.95923 52.1263 8.95923L47.0448 8.98311C47.037 8.98311 47.0296 8.98311 47.0218 8.98311C45.7698 8.98311 44.5922 8.49714 43.7043 7.61351C42.8108 6.72414 42.319 5.54041 42.319 4.27967V3.70317H55.0075C57.391 3.70317 59.6894 4.70381 61.3134 6.44885L61.3887 6.52975L50.334 17.5841Z" fill="#B9A947"/>
</svg>
